<?xml version="1.0" encoding="UTF-8"?>
<svg xmlns="http://www.w3.org/2000/svg" xmlns:xlink="http://www.w3.org/1999/xlink" viewBox="0 0 100 100" width="100px" height="100px">
<g id="surface83532627">
<path style=" stroke:none;fill-rule:nonzero;fill:rgb(91.37255%,75.686276%,33.725491%);fill-opacity:1;" d="M 18 8 C 12.5 8 8 12.5 8 18 L 8 82 C 8 87.5 12.5 92 18 92 L 82 92 C 87.5 92 92 87.5 92 82 L 92 18 C 92 12.5 87.5 8 82 8 Z M 18 12 L 82 12 C 85.34375 12 88 14.65625 88 18 L 88 82 C 88 85.34375 85.34375 88 82 88 L 18 88 C 14.65625 88 12 85.34375 12 82 L 12 18 C 12 14.65625 14.65625 12 18 12 Z M 52.085938 20 C 50.984375 20 50.089844 20.894531 50.085938 21.996094 C 50.085938 21.996094 50.0625 31.746094 50.042969 41.519531 C 50.03125 46.40625 50.019531 51.296875 50.011719 54.980469 C 50.003906 58.664062 50 60.992188 50 61.1875 C 50 64.816406 46.703125 67.785156 42.945312 67.785156 C 39.21875 67.785156 36.242188 64.804688 36.242188 61.078125 C 36.242188 57.351562 39.21875 54.375 42.945312 54.375 C 43.070312 54.375 43.324219 54.417969 43.761719 54.46875 C 44.328125 54.535156 44.898438 54.359375 45.328125 53.976562 C 45.757812 53.597656 46 53.054688 46 52.480469 L 46 44.078125 C 46 43.023438 45.179688 42.148438 44.125 42.082031 C 43.8125 42.0625 43.421875 42.023438 42.945312 42.023438 C 32.445312 42.023438 23.890625 50.578125 23.890625 61.078125 C 23.890625 71.578125 32.445312 80.132812 42.945312 80.132812 C 53.445312 80.132812 62 71.578125 62 61.078125 L 62 42.980469 C 64.910156 45.308594 68.535156 46.78125 72.539062 46.78125 C 73.085938 46.78125 73.605469 46.75 74.101562 46.703125 C 75.128906 46.609375 75.917969 45.746094 75.917969 44.710938 L 75.917969 35.371094 C 75.917969 34.320312 75.109375 33.449219 74.0625 33.375 C 67.773438 32.921875 62.757812 28.023438 62.105469 21.792969 C 62 20.773438 61.140625 20 60.117188 20 Z M 54.082031 24 L 58.644531 24 C 60.097656 30.597656 65.253906 35.628906 71.917969 36.890625 L 71.917969 42.621094 C 67.640625 42.402344 63.882812 40.269531 61.671875 36.90625 C 61.1875 36.167969 60.273438 35.835938 59.425781 36.089844 C 58.578125 36.34375 58 37.125 58 38.007812 L 58 61.078125 C 58 69.414062 51.28125 76.132812 42.945312 76.132812 C 34.609375 76.132812 27.890625 69.414062 27.890625 61.078125 C 27.890625 53.078125 34.132812 46.726562 42 46.214844 L 42 50.566406 C 36.574219 51.070312 32.242188 55.523438 32.242188 61.078125 C 32.242188 66.964844 37.058594 71.785156 42.945312 71.785156 C 48.804688 71.785156 54 67.171875 54 61.1875 C 54 61.285156 54.003906 58.671875 54.011719 54.988281 C 54.019531 51.304688 54.03125 46.414062 54.042969 41.527344 C 54.0625 32.753906 54.078125 25.699219 54.082031 24 Z M 54.082031 24 "/>
</g>
</svg>
